<?xml version="1.0" standalone="no"?>
<!DOCTYPE svg PUBLIC "-//W3C//DTD SVG 20010904//EN"
 "http://www.w3.org/TR/2001/REC-SVG-20010904/DTD/svg10.dtd">
<svg version="1.0" xmlns="http://www.w3.org/2000/svg"
 width="1272.000000pt" height="1272.000000pt" viewBox="0 0 1272.000000 1272.000000"
 preserveAspectRatio="xMidYMid meet">
<metadata>
Created by potrace 1.14, written by Peter Selinger 2001-2017
</metadata>
<g transform="translate(0.000000,1272.000000) scale(0.100000,-0.100000)"
fill="#000000" stroke="none">
<path d="M7280 9084 c-63 -12 -128 -25 -145 -28 -16 -3 -41 -8 -55 -11 -14 -3
-41 -8 -60 -11 -19 -3 -51 -9 -70 -14 -19 -5 -55 -12 -80 -15 -24 -4 -47 -8
-50 -10 -3 -2 -25 -6 -50 -10 -25 -4 -47 -8 -50 -10 -3 -2 -23 -6 -45 -9 -22
-4 -83 -15 -135 -25 -80 -17 -156 -30 -175 -32 -2 -1 -26 -6 -52 -13 l-48 -12
0 -205 c0 -129 -4 -204 -10 -203 -6 0 -46 17 -90 38 -230 110 -281 131 -410
171 -198 61 -219 66 -288 66 -74 -1 -103 -6 -175 -31 -73 -26 -151 -74 -211
-130 -50 -47 -121 -131 -121 -144 0 -5 -8 -20 -19 -34 -28 -41 -63 -165 -66
-242 -4 -77 16 -179 46 -228 12 -21 15 -32 7 -30 -243 68 -422 130 -503 174
-86 47 -165 84 -210 97 -27 8 -77 27 -110 42 -120 54 -236 80 -360 79 -109 -1
-159 -9 -300 -51 -40 -12 -171 -86 -219 -124 l-48 -39 -42 40 c-43 42 -89 53
-100 25 -5 -14 -29 -146 -41 -230 -6 -41 -9 -56 -19 -115 -14 -84 -14 -90 1
-106 18 -17 33 -16 142 15 23 7 44 11 46 9 2 -2 -2 -27 -8 -57 -11 -52 -11
-54 15 -76 26 -23 29 -23 85 -10 32 8 74 19 93 25 19 5 37 10 39 10 2 0 1 -18
-3 -39 -4 -29 -1 -44 12 -60 15 -19 21 -20 52 -11 19 6 42 13 50 15 8 2 27 6
43 10 27 7 27 7 22 -31 -2 -22 -8 -68 -11 -104 -3 -36 -10 -69 -16 -75 -6 -6
-7 -4 -3 7 8 21 -19 74 -49 93 -13 9 -40 17 -60 19 -23 3 -56 18 -89 44 -29
21 -88 55 -132 75 -44 19 -150 68 -235 109 -85 41 -207 99 -270 128 -63 30
-143 73 -176 96 -34 24 -104 63 -155 87 -52 24 -139 66 -194 92 -95 45 -159
71 -198 81 -9 2 -27 6 -40 9 -32 8 -196 8 -237 1 -28 -5 -215 -42 -361 -71
-13 -3 -37 -8 -54 -10 -16 -3 -37 -8 -45 -10 -8 -2 -35 -7 -60 -10 -24 -4 -47
-8 -51 -10 -7 -5 -8 -1751 0 -1763 6 -10 239 -123 306 -149 22 -9 74 -31 115
-51 166 -77 260 -122 365 -172 61 -29 137 -65 170 -80 33 -15 89 -42 125 -59
57 -28 71 -31 115 -25 60 8 81 11 103 18 9 3 33 8 52 11 19 3 78 14 130 25 52
11 111 22 130 25 19 4 42 8 50 10 8 2 20 4 26 4 7 1 10 42 9 121 l-1 119 51
12 c77 18 193 70 274 123 91 59 212 179 273 272 l47 70 97 -47 c53 -27 124
-55 158 -63 66 -16 250 -80 331 -116 28 -12 84 -30 125 -40 41 -11 112 -31
157 -44 209 -64 424 -46 618 51 154 77 281 194 367 339 42 72 93 200 105 264
2 13 6 26 8 29 6 5 66 -21 235 -102 353 -168 429 -201 582 -248 142 -45 174
-51 253 -52 194 -3 385 107 500 288 37 57 85 172 85 203 0 9 4 23 8 30 9 13
32 3 302 -126 380 -181 402 -190 434 -181 17 4 45 11 63 14 40 7 390 74 420
80 l23 5 2 542 3 542 150 30 c83 16 153 34 157 39 3 6 6 128 5 272 l-1 262
-50 26 c-47 24 -95 47 -386 184 -125 59 -222 105 -413 197 -88 42 -160 76
-162 76 -2 0 -46 20 -97 45 -53 25 -106 44 -123 44 -16 -1 -82 -12 -145 -25z
m-1937 -1433 c50 -23 59 -44 28 -61 -34 -18 -59 -11 -82 23 -13 17 -26 34 -29
37 -3 3 -18 20 -35 39 l-30 33 50 -25 c28 -13 71 -34 98 -46z m-999 -46 c8
-27 18 -81 22 -120 l7 -69 -39 32 c-21 18 -46 32 -55 32 -12 0 -15 7 -11 26 3
20 -4 34 -31 62 l-36 37 32 21 c94 61 87 62 111 -21z m-110 -147 c-3 -4 -9 -8
-15 -8 -5 0 -9 4 -9 8 0 5 7 9 15 9 8 0 12 -4 9 -9z m-62 -468 c-3 -20 -19
-43 -47 -68 -47 -41 -112 -78 -121 -70 -3 4 -12 27 -19 52 l-14 46 27 0 c15 1
59 18 97 39 39 21 73 37 76 35 3 -2 4 -17 1 -34z"/>
<path d="M10250 7079 c-52 -10 -108 -22 -125 -25 -98 -17 -292 -56 -305 -60
-8 -2 -26 -27 -40 -55 -14 -28 -28 -53 -31 -55 -4 -2 -41 12 -82 32 l-76 36
-81 -17 c-44 -9 -93 -18 -108 -21 -15 -3 -72 -14 -127 -24 -55 -11 -109 -22
-120 -24 -11 -2 -39 -7 -62 -11 l-43 -8 0 -308 0 -308 -142 68 c-219 105 -336
160 -413 196 -38 18 -106 49 -150 70 -128 59 -197 77 -320 79 -295 7 -603
-162 -800 -438 -25 -35 -45 -69 -45 -75 0 -6 -4 -11 -8 -11 -4 0 -14 -16 -21
-36 -7 -19 -19 -38 -26 -40 -7 -3 -64 19 -126 49 -155 74 -315 150 -429 202
-52 24 -112 53 -134 63 -38 19 -38 19 -180 -10 -77 -16 -157 -31 -176 -34 -51
-8 -273 -54 -276 -57 -1 -1 -41 -139 -89 -307 -47 -168 -95 -335 -106 -373
l-20 -68 -27 15 c-26 15 -144 71 -342 162 -52 24 -106 51 -120 58 -14 8 -86
42 -160 76 -74 34 -164 76 -200 92 -36 17 -85 36 -109 44 -60 18 -183 12 -306
-15 -55 -12 -117 -24 -138 -26 -21 -2 -41 -6 -45 -9 -4 -2 -27 -7 -52 -11 -25
-4 -47 -8 -50 -10 -4 -2 -29 -7 -56 -11 -27 -3 -52 -8 -55 -10 -4 -2 -24 -6
-45 -10 -35 -5 -247 -47 -300 -59 l-21 -5 1 -812 1 -812 50 -26 c28 -14 111
-54 185 -89 74 -35 187 -88 250 -119 63 -30 142 -67 175 -82 33 -15 116 -54
185 -88 69 -33 148 -70 175 -82 28 -13 82 -38 120 -57 70 -34 74 -34 155 -18
14 3 41 8 60 11 19 3 42 7 50 9 8 2 29 7 45 9 17 3 110 21 208 41 98 19 193
37 210 40 18 3 39 8 47 10 8 2 27 6 42 9 184 31 263 60 353 127 92 68 177 174
214 267 8 17 15 32 16 32 2 0 35 -16 74 -35 39 -19 72 -35 75 -35 2 0 62 -28
133 -62 70 -34 140 -61 155 -61 26 1 427 76 501 94 20 6 37 16 37 23 0 8 7 36
16 63 l16 49 66 13 c37 7 81 15 97 18 17 2 45 8 64 13 28 8 45 4 110 -27 42
-19 85 -39 97 -43 13 -5 74 2 165 20 79 15 162 32 184 36 22 4 42 8 45 9 3 1
38 7 77 14 40 7 75 17 78 21 3 5 -31 121 -75 260 -44 138 -80 255 -80 260 0 5
12 3 28 -5 36 -20 404 -195 408 -195 1 0 56 -25 121 -56 132 -63 221 -98 273
-109 69 -15 272 -9 340 9 223 60 417 189 562 374 28 37 55 71 58 75 4 4 54
-14 111 -41 375 -178 422 -199 439 -197 8 2 42 8 75 15 33 6 71 13 85 16 14 2
34 6 46 9 12 3 36 7 55 10 19 3 86 16 149 29 l115 23 3 68 c1 38 4 70 5 71 1
2 49 -20 107 -47 l104 -50 110 21 c296 57 448 89 452 93 5 4 -35 69 -152 247
-12 19 -85 133 -162 253 l-140 218 27 52 c16 29 76 147 136 262 59 116 152
296 206 401 l99 192 -38 18 c-20 9 -106 50 -190 91 -84 40 -174 83 -200 94
-26 12 -105 50 -177 84 -71 35 -211 101 -310 148 -99 46 -205 96 -236 111 -65
30 -73 31 -199 5z"/>
</g>
</svg>
